<svg width="28" height="28" viewBox="0 0 28 28" fill="none" xmlns="http://www.w3.org/2000/svg">
<g clip-path="url(#clip0_4821_13)">
<path d="M16.8914 22.9785C15.6332 22.9785 14.6088 24.003 14.6088 25.2611C14.6088 26.5193 15.6332 27.5438 16.8914 27.5438C18.1496 27.5438 19.174 26.5193 19.174 25.2611C19.174 24.0029 18.1495 22.9785 16.8914 22.9785ZM16.8914 26.6307C16.1363 26.6307 15.5218 26.0162 15.5218 25.2611C15.5218 24.506 16.1363 23.8915 16.8914 23.8915C17.6465 23.8915 18.2609 24.506 18.2609 25.2611C18.2609 26.0162 17.6464 26.6307 16.8914 26.6307Z" fill="#CA3192"/>
<path d="M7.76087 22.9785C6.50271 22.9785 5.47827 24.003 5.47827 25.2611C5.47827 26.5193 6.50271 27.5438 7.76087 27.5438C9.01903 27.5438 10.0435 26.5193 10.0435 25.2612C10.0435 24.003 9.01907 22.9785 7.76087 22.9785ZM7.76087 26.6307C7.00577 26.6307 6.3913 26.0162 6.3913 25.2611C6.3913 24.506 7.00577 23.8915 7.76087 23.8915C8.51597 23.8915 9.13044 24.506 9.13044 25.2611C9.13044 26.0162 8.51597 26.6307 7.76087 26.6307Z" fill="#CA3192"/>
<path d="M18.7174 21.1522H8.17995C7.09616 21.1522 6.15484 20.3807 5.94208 19.317L3.64305 7.82359C3.60012 7.60993 3.41296 7.45654 3.19567 7.45654H0.456537C0.204536 7.45654 0 7.66108 0 7.91308C0 8.16508 0.204536 8.36962 0.456537 8.36962H2.82131L5.04638 19.4969C5.34405 20.9851 6.66247 22.0653 8.17995 22.0653H18.7174C18.9694 22.0653 19.1739 21.8608 19.1739 21.6088C19.1739 21.3568 18.9694 21.1522 18.7174 21.1522Z" fill="#CA3192"/>
<path d="M20.8859 10.3501C20.7991 10.2524 20.675 10.1958 20.5435 10.1958H4.1087C3.8567 10.1958 3.65216 10.4003 3.65216 10.6523C3.65216 10.9043 3.8567 11.1088 4.1087 11.1088H20.0267L19.3775 16.3004C19.2917 16.9843 18.7073 17.5001 18.018 17.5001H5.47826C5.22626 17.5001 5.02173 17.7047 5.02173 17.9567C5.02173 18.2087 5.22626 18.4132 5.47826 18.4132H18.018C19.1666 18.4132 20.1409 17.554 20.2833 16.4136L20.9964 10.7089C21.0128 10.5792 20.9726 10.4478 20.8859 10.3501Z" fill="#CA3192"/>
</g>
<circle cx="20.5" cy="7.5" r="7.5" fill="#CA3192"/>
<path d="M18.797 5.05C19.139 4.918 19.472 4.75 19.796 4.546C20.12 4.336 20.417 4.075 20.687 3.763H21.281V10H20.444V4.924C20.372 4.99 20.282 5.059 20.174 5.131C20.072 5.203 19.958 5.272 19.832 5.338C19.712 5.404 19.583 5.467 19.445 5.527C19.313 5.587 19.184 5.638 19.058 5.68L18.797 5.05Z" fill="white"/>
<defs>
<clipPath id="clip0_4821_13">
<rect width="21" height="21" fill="white" transform="translate(0 7)"/>
</clipPath>
</defs>
</svg>
