<svg width="35" height="35" viewBox="0 0 35 35" fill="none" xmlns="http://www.w3.org/2000/svg">
<circle cx="17.5" cy="17.5" r="17.5" fill="url(#paint0_linear_1_1659)"/>
<g clip-path="url(#clip0_1_1659)">
<path d="M17.9993 25.2649C17.9976 25.2649 17.9958 25.2649 17.994 25.2649C17.3905 25.2607 12.0554 25.2121 10.5438 24.8033C9.48747 24.5193 8.65357 23.6863 8.36884 22.6298C7.97334 21.145 7.99851 18.2862 8.00126 18.058C7.99866 17.8308 7.97318 14.9484 8.36762 13.4513C8.36808 13.45 8.36839 13.4484 8.36884 13.4471C8.65037 12.4026 9.50303 11.5438 10.5412 11.2591C10.5438 11.2583 10.5466 11.2577 10.5492 11.257C12.0436 10.8642 17.3892 10.8161 17.994 10.812H18.0048C18.6098 10.8161 23.9591 10.8648 25.4567 11.2742C26.5104 11.5574 27.3436 12.3893 27.6291 13.4445C28.0394 14.9426 28.0014 17.8312 27.9973 18.0751C28.0002 18.3152 28.0242 21.1483 27.631 22.6406C27.6307 22.6422 27.6302 22.6435 27.6299 22.6449C27.345 23.7014 26.5113 24.5344 25.4537 24.8187C25.4523 24.8191 25.4508 24.8195 25.4494 24.8199C23.9551 25.2125 18.6093 25.2606 18.0048 25.2649C18.003 25.2649 18.0011 25.2649 17.9993 25.2649ZM9.87794 13.852C9.53065 15.1734 9.56346 18.0191 9.56376 18.0477V18.0683C9.55339 18.8575 9.58985 21.143 9.87809 22.2255C10.0179 22.7438 10.4291 23.1544 10.9506 23.2946C12.0659 23.5963 16.4112 23.6912 17.9993 23.7024C19.5915 23.6912 23.9432 23.5989 25.0502 23.3093C25.5701 23.1686 25.98 22.7594 26.1206 22.2404C26.4092 21.1421 26.4454 18.8678 26.4348 18.0836C26.4348 18.0754 26.4348 18.0671 26.435 18.0589C26.4493 17.2602 26.4211 14.9481 26.122 13.8569C26.1217 13.8558 26.1214 13.8548 26.1213 13.8537C25.9809 13.3331 25.5695 12.9225 25.0479 12.7822C23.9435 12.4803 19.5912 12.3857 17.9993 12.3745C16.4081 12.3857 12.0607 12.4778 10.9503 12.7671C10.4387 12.909 10.0182 13.3343 9.87794 13.852ZM26.8755 22.4417H26.876H26.8755ZM16.0079 21.2023V14.8744L21.4766 18.0384L16.0079 21.2023Z" fill="white"/>
</g>
<defs>
<linearGradient id="paint0_linear_1_1659" x1="0.10026" y1="21.8765" x2="35" y2="21.8765" gradientUnits="userSpaceOnUse">
<stop stop-color="#F880B9"/>
<stop offset="1" stop-color="#FF98A6"/>
</linearGradient>
<clipPath id="clip0_1_1659">
<rect width="20" height="20" fill="white" transform="translate(8 8)"/>
</clipPath>
</defs>
</svg>
