<svg width="35" height="35" viewBox="0 0 35 35" fill="none" xmlns="http://www.w3.org/2000/svg">
<circle cx="17.5" cy="17.5" r="17.5" fill="url(#paint0_linear_1_1643)"/>
<path d="M7.43381 24.9626C9.47064 26.2551 11.8411 26.938 14.2886 26.938C17.8728 26.938 21.1572 25.5612 23.5378 23.0614C25.8157 20.6689 27.0688 17.4542 27.0065 14.1918C27.87 13.4529 28.8856 12.0422 28.8856 10.6672C28.8856 10.1401 28.3136 9.80551 27.8498 10.0741C27.0386 10.5508 26.2988 10.6754 25.538 10.4618C23.9842 8.94751 21.6715 8.62851 19.7226 9.67901C18.0195 10.5957 17.0726 12.2732 17.1578 14.1065C14.2804 13.7554 11.6221 12.3126 9.76856 10.0704C9.46423 9.70468 8.88673 9.74776 8.64473 10.1621C7.75189 11.6911 7.76106 13.463 8.53748 14.8939C8.16806 14.959 7.93981 15.2698 7.93981 15.6062C7.93981 17.0444 8.58698 18.3663 9.62923 19.2683C9.43489 19.4553 9.37073 19.733 9.45323 19.9805C9.91156 21.3573 10.9492 22.4335 12.2463 22.9725C10.8356 23.6463 9.27539 23.8708 7.88664 23.7003C7.16798 23.6032 6.81323 24.5693 7.43381 24.9626ZM14.4766 23.2081C14.9908 22.813 14.7176 21.9898 14.0723 21.9761C12.9356 21.9523 11.9007 21.3922 11.2563 20.5113C11.5671 20.4911 11.8888 20.4434 12.195 20.3609C12.8926 20.1721 12.8596 19.1656 12.151 19.0235C10.8649 18.765 9.85564 17.8282 9.47706 16.6218C9.82264 16.7071 10.1746 16.7548 10.5257 16.7612C11.2215 16.7648 11.4846 15.8729 10.9171 15.4998C9.63839 14.6574 9.09298 13.1697 9.45414 11.7708C11.6871 14.0332 14.7167 15.3963 17.9214 15.5503C18.3806 15.5787 18.7253 15.1469 18.6245 14.7097C18.1891 12.8223 19.2432 11.4995 20.3753 10.8899C21.4955 10.2849 23.294 10.0961 24.6726 11.5426C25.0824 11.9743 26.4647 11.9908 27.1678 11.8268C26.8525 12.4208 26.3676 12.9845 25.9138 13.3017C25.7204 13.4373 25.6095 13.6628 25.6214 13.8984C25.769 16.9097 24.647 19.9035 22.5432 22.1118C20.4239 24.3365 17.4933 25.5621 14.2896 25.5621C13.0154 25.5621 11.766 25.3549 10.5853 24.9553C11.997 24.6821 13.3381 24.0844 14.4766 23.2081Z" fill="white"/>
<defs>
<linearGradient id="paint0_linear_1_1643" x1="0.10026" y1="21.8765" x2="35" y2="21.8765" gradientUnits="userSpaceOnUse">
<stop stop-color="#F880B9"/>
<stop offset="1" stop-color="#FF98A6"/>
</linearGradient>
</defs>
</svg>
