<svg width="35" height="35" viewBox="0 0 35 35" fill="none" xmlns="http://www.w3.org/2000/svg">
<circle cx="17.5" cy="17.5" r="17.5" fill="url(#paint0_linear_1_1625)"/>
<g clip-path="url(#clip0_1_1625)">
<path d="M26.9805 13.8801C26.9336 12.8174 26.7618 12.0868 26.5156 11.4537C26.2616 10.7818 25.8709 10.1801 25.3591 9.68002C24.8589 9.1721 24.2533 8.77743 23.5891 8.52745C22.9524 8.28127 22.2257 8.10943 21.163 8.06257C20.0924 8.01175 19.7525 8 17.0371 8C14.3217 8 13.9819 8.01175 12.9152 8.05861C11.8525 8.10546 11.122 8.27746 10.489 8.52348C9.81692 8.77743 9.2153 9.16814 8.71517 9.68002C8.20726 10.1801 7.81274 10.7857 7.5626 11.4499C7.31643 12.0868 7.14458 12.8134 7.09773 13.8761C7.04691 14.9467 7.03516 15.2866 7.03516 18.002C7.03516 20.7173 7.04691 21.0572 7.09376 22.1239C7.14062 23.1865 7.31262 23.9171 7.55879 24.5502C7.81274 25.2221 8.20726 25.8238 8.71517 26.3239C9.2153 26.8318 9.82089 27.2265 10.4851 27.4765C11.122 27.7226 11.8486 27.8945 12.9114 27.9413C13.9779 27.9883 14.3179 27.9999 17.0333 27.9999C19.7487 27.9999 20.0885 27.9883 21.1552 27.9413C22.2179 27.8945 22.9485 27.7226 23.5814 27.4765C24.9255 26.9568 25.9881 25.8941 26.5078 24.5502C26.7538 23.9133 26.9258 23.1865 26.9727 22.1239C27.0195 21.0572 27.0313 20.7173 27.0313 18.002C27.0313 15.2866 27.0273 14.9467 26.9805 13.8801ZM25.1794 22.0457C25.1364 23.0225 24.9723 23.5499 24.8356 23.9015C24.4995 24.7728 23.808 25.4643 22.9367 25.8004C22.5851 25.9372 22.0538 26.1012 21.0809 26.1441C20.026 26.1911 19.7096 26.2027 17.0411 26.2027C14.3726 26.2027 14.0522 26.1911 13.0011 26.1441C12.0244 26.1012 11.4969 25.9372 11.1453 25.8004C10.7117 25.6402 10.317 25.3862 9.9967 25.0541C9.66461 24.7298 9.41065 24.3391 9.2504 23.9055C9.11366 23.5539 8.94959 23.0225 8.90671 22.0497C8.8597 20.9948 8.8481 20.6783 8.8481 18.0097C8.8481 15.3412 8.8597 15.0209 8.90671 13.9699C8.94959 12.9932 9.11366 12.4657 9.2504 12.1141C9.41065 11.6804 9.66461 11.2859 10.0007 10.9654C10.3248 10.6333 10.7155 10.3793 11.1493 10.2192C11.5009 10.0825 12.0323 9.9184 13.0051 9.87537C14.06 9.82851 14.3765 9.81676 17.0449 9.81676C19.7174 9.81676 20.0338 9.82851 21.0848 9.87537C22.0616 9.9184 22.589 10.0825 22.9407 10.2192C23.3743 10.3793 23.7689 10.6333 24.0893 10.9654C24.4214 11.2897 24.6753 11.6804 24.8356 12.1141C24.9723 12.4657 25.1364 12.997 25.1794 13.9699C25.2263 15.0248 25.238 15.3412 25.238 18.0097C25.238 20.6783 25.2263 20.9908 25.1794 22.0457Z" fill="white"/>
<path d="M17.0371 12.8643C14.2007 12.8643 11.8994 15.1654 11.8994 18.002C11.8994 20.8385 14.2007 23.1397 17.0371 23.1397C19.8737 23.1397 22.1749 20.8385 22.1749 18.002C22.1749 15.1654 19.8737 12.8643 17.0371 12.8643ZM17.0371 21.3347C15.197 21.3347 13.7044 19.8422 13.7044 18.002C13.7044 16.1617 15.197 14.6693 17.0371 14.6693C18.8774 14.6693 20.3698 16.1617 20.3698 18.002C20.3698 19.8422 18.8774 21.3347 17.0371 21.3347Z" fill="white"/>
<path d="M23.5777 12.6608C23.5777 13.3232 23.0406 13.8603 22.3781 13.8603C21.7158 13.8603 21.1787 13.3232 21.1787 12.6608C21.1787 11.9983 21.7158 11.4614 22.3781 11.4614C23.0406 11.4614 23.5777 11.9983 23.5777 12.6608Z" fill="white"/>
</g>
<defs>
<linearGradient id="paint0_linear_1_1625" x1="0.10026" y1="21.8765" x2="35" y2="21.8765" gradientUnits="userSpaceOnUse">
<stop stop-color="#F880B9"/>
<stop offset="1" stop-color="#FF98A6"/>
</linearGradient>
<clipPath id="clip0_1_1625">
<rect width="20" height="20" fill="white" transform="translate(7 8)"/>
</clipPath>
</defs>
</svg>
