<svg width="35" height="35" viewBox="0 0 35 35" fill="none" xmlns="http://www.w3.org/2000/svg">
<circle cx="17.5" cy="17.5" r="17.5" fill="url(#paint0_linear_1_1650)"/>
<path d="M18.4688 8C13.0105 8 10.2584 11.9131 10.2584 15.1765C10.2584 17.1523 11.0064 18.9098 12.6106 19.565C12.8739 19.6725 13.1098 19.5689 13.1864 19.2777C13.2392 19.0761 13.3647 18.5676 13.4206 18.3557C13.4976 18.0676 13.4675 17.9666 13.2554 17.7156C12.7928 17.1699 12.4971 16.4634 12.4971 15.4627C12.4971 12.5595 14.6693 9.96064 18.1536 9.96064C21.2382 9.96064 22.9333 11.8457 22.9333 14.3631C22.9333 17.6754 21.4674 20.4709 19.2913 20.4709C18.0893 20.4709 17.19 19.477 17.4783 18.258C17.8235 16.8027 18.4921 15.232 18.4921 14.1817C18.4921 13.2414 17.9878 12.457 16.943 12.457C15.7144 12.457 14.7277 13.7279 14.7277 15.4304C14.7277 16.5148 15.094 17.2483 15.094 17.2483C15.094 17.2483 13.8365 22.5753 13.6166 23.5082C13.1774 25.3659 13.5507 27.6435 13.5822 27.8735C13.6004 28.0098 13.7755 28.0422 13.855 27.9394C13.9686 27.7913 15.4317 25.9851 15.929 24.1801C16.0697 23.669 16.7366 21.0226 16.7366 21.0226C17.1359 21.7837 18.3025 22.4543 19.5432 22.4543C23.2359 22.4543 25.7417 19.0877 25.7417 14.581C25.7419 11.1735 22.8553 8 18.4688 8Z" fill="white"/>
<defs>
<linearGradient id="paint0_linear_1_1650" x1="0.10026" y1="21.8765" x2="35" y2="21.8765" gradientUnits="userSpaceOnUse">
<stop stop-color="#F880B9"/>
<stop offset="1" stop-color="#FF98A6"/>
</linearGradient>
</defs>
</svg>
