<svg width="21" height="21" viewBox="0 0 21 21" fill="none" xmlns="http://www.w3.org/2000/svg">
<path d="M15.0456 1.80754C13.2938 1.79817 11.6284 2.56753 10.5 3.90751C9.37863 2.55837 7.70864 1.78683 5.9544 1.80754C2.66586 1.80754 0 4.4734 0 7.76193C0 13.3974 9.83543 18.8999 10.2342 19.1126C10.3951 19.2201 10.6049 19.2201 10.7658 19.1126C11.1646 18.8999 21 13.4771 21 7.76193C21 4.4734 18.3341 1.80754 15.0456 1.80754ZM10.5 18.0493C8.95821 17.1455 1.06329 12.3341 1.06329 7.76193C1.06329 5.06066 3.25312 2.87078 5.95445 2.87078C7.60866 2.84905 9.15674 3.68343 10.0481 5.07709C10.2291 5.32666 10.5782 5.38227 10.8277 5.20124C10.8754 5.16664 10.9173 5.12477 10.9519 5.07709C12.4302 2.81623 15.4614 2.18186 17.7223 3.66018C19.1063 4.56519 19.9394 6.10823 19.9367 7.76188C19.9367 12.3872 12.0417 17.1721 10.5 18.0493Z" fill="#4E3535"/>
</svg>
