<svg width="40" height="40" viewBox="0 0 40 40" fill="none" xmlns="http://www.w3.org/2000/svg">
<g clip-path="url(#clip0_1_522)">
<path d="M23.8281 20C23.8281 22.1143 22.1143 23.8281 20 23.8281C17.8857 23.8281 16.1719 22.1143 16.1719 20C16.1719 17.8857 17.8857 16.1719 20 16.1719C22.1143 16.1719 23.8281 17.8857 23.8281 20Z" fill="url(#paint0_linear_1_522)"/>
<path d="M28.9531 13.227C28.7691 12.7284 28.4755 12.277 28.0941 11.9065C27.7236 11.5251 27.2725 11.2315 26.7736 11.0475C26.3689 10.8903 25.761 10.7032 24.6413 10.6523C23.4301 10.597 23.0669 10.5851 20.0005 10.5851C16.9338 10.5851 16.5706 10.5967 15.3597 10.6519C14.24 10.7032 13.6318 10.8903 13.2274 11.0475C12.7285 11.2315 12.2771 11.5251 11.9069 11.9065C11.5255 12.277 11.2319 12.7281 11.0475 13.227C10.8904 13.6317 10.7033 14.2399 10.6523 15.3596C10.5971 16.5705 10.5852 16.9337 10.5852 20.0004C10.5852 23.0668 10.5971 23.43 10.6523 24.6412C10.7033 25.7609 10.8904 26.3688 11.0475 26.7735C11.2319 27.2724 11.5251 27.7235 11.9066 28.094C12.2771 28.4754 12.7281 28.769 13.2271 28.953C13.6318 29.1105 14.24 29.2976 15.3597 29.3485C16.5706 29.4038 16.9335 29.4154 20.0002 29.4154C23.0672 29.4154 23.4304 29.4038 24.641 29.3485C25.7607 29.2976 26.3689 29.1105 26.7736 28.953C27.7752 28.5667 28.5668 27.7751 28.9531 26.7735C29.1103 26.3688 29.2974 25.7609 29.3486 24.6412C29.4039 23.43 29.4155 23.0668 29.4155 20.0004C29.4155 16.9337 29.4039 16.5705 29.3486 15.3596C29.2977 14.2399 29.1106 13.6317 28.9531 13.227ZM20.0005 25.8973C16.7433 25.8973 14.103 23.2572 14.103 20.0001C14.103 16.743 16.7433 14.1029 20.0005 14.1029C23.2573 14.1029 25.8977 16.743 25.8977 20.0001C25.8977 23.2572 23.2573 25.8973 20.0005 25.8973ZM26.1309 15.2479C25.3698 15.2479 24.7527 14.6308 24.7527 13.8697C24.7527 13.1086 25.3698 12.4915 26.1309 12.4915C26.892 12.4915 27.509 13.1086 27.509 13.8697C27.5087 14.6308 26.892 15.2479 26.1309 15.2479Z" fill="url(#paint1_linear_1_522)"/>
<path d="M20 0C8.95599 0 0 8.95599 0 20C0 31.044 8.95599 40 20 40C31.044 40 40 31.044 40 20C40 8.95599 31.044 0 20 0ZM31.4151 24.7348C31.3596 25.9573 31.1652 26.792 30.8813 27.5226C30.2847 29.0652 29.0652 30.2847 27.5226 30.8813C26.7923 31.1652 25.9573 31.3593 24.7351 31.4151C23.5104 31.4709 23.1192 31.4844 20.0003 31.4844C16.8811 31.4844 16.4902 31.4709 15.2652 31.4151C14.043 31.3593 13.208 31.1652 12.4777 30.8813C11.7111 30.593 11.0172 30.141 10.4434 29.5566C9.85931 28.9832 9.40735 28.2889 9.11896 27.5226C8.83514 26.7923 8.64075 25.9573 8.58521 24.7351C8.52875 23.5101 8.51562 23.1189 8.51562 20C8.51562 16.8811 8.52875 16.4899 8.5849 15.2652C8.64044 14.0427 8.83453 13.208 9.11835 12.4774C9.40674 11.7111 9.85901 11.0168 10.4434 10.4434C11.0168 9.85901 11.7111 9.40704 12.4774 9.11865C13.208 8.83484 14.0427 8.64075 15.2652 8.5849C16.4899 8.52905 16.8811 8.51562 20 8.51562C23.1189 8.51562 23.5101 8.52905 24.7348 8.58521C25.9573 8.64075 26.792 8.83484 27.5226 9.11835C28.2889 9.40674 28.9832 9.85901 29.5569 10.4434C30.141 11.0172 30.5933 11.7111 30.8813 12.4774C31.1655 13.208 31.3596 14.0427 31.4154 15.2652C31.4713 16.4899 31.4844 16.8811 31.4844 20C31.4844 23.1189 31.4713 23.5101 31.4151 24.7348Z" fill="url(#paint2_linear_1_522)"/>
</g>
<defs>
<linearGradient id="paint0_linear_1_522" x1="16.1938" y1="20.9574" x2="23.8281" y2="20.9574" gradientUnits="userSpaceOnUse">
<stop stop-color="#CA3192"/>
<stop offset="1" stop-color="#FF98A6"/>
</linearGradient>
<linearGradient id="paint1_linear_1_522" x1="10.6391" y1="22.3548" x2="29.4155" y2="22.3548" gradientUnits="userSpaceOnUse">
<stop stop-color="#CA3192"/>
<stop offset="1" stop-color="#FF98A6"/>
</linearGradient>
<linearGradient id="paint2_linear_1_522" x1="0.114583" y1="25.0017" x2="40" y2="25.0017" gradientUnits="userSpaceOnUse">
<stop stop-color="#CA3192"/>
<stop offset="1" stop-color="#FF98A6"/>
</linearGradient>
<clipPath id="clip0_1_522">
<rect width="40" height="40" fill="white"/>
</clipPath>
</defs>
</svg>
