<svg width="183" height="183" viewBox="0 0 183 183" fill="none" xmlns="http://www.w3.org/2000/svg">
<g clip-path="url(#clip0_1_202)">
<path d="M133.463 0H49.5363C22.2215 0 0 22.2215 0 49.5363V133.465C0 160.778 22.2215 183 49.5363 183H133.465C160.778 183 183 160.778 183 133.465V49.5363C183 22.2215 160.778 0 133.463 0V0ZM172.271 133.465C172.271 154.863 154.863 172.271 133.463 172.271H49.5363C28.1371 172.271 10.7282 154.863 10.7282 133.465V49.5363C10.7282 28.1371 28.1371 10.7282 49.5363 10.7282H133.465C154.863 10.7282 172.271 28.1371 172.271 49.5363V133.465Z" fill="url(#paint0_linear_1_202)"/>
<path d="M91.4998 41.4624C63.9086 41.4624 41.4622 63.9087 41.4622 91.5C41.4622 119.091 63.9086 141.538 91.4998 141.538C119.091 141.538 141.537 119.091 141.537 91.5C141.537 63.9087 119.091 41.4624 91.4998 41.4624ZM91.4998 130.809C69.8256 130.809 52.1905 113.176 52.1905 91.5C52.1905 69.8257 69.8256 52.1906 91.4998 52.1906C113.175 52.1906 130.809 69.8257 130.809 91.5C130.809 113.176 113.175 130.809 91.4998 130.809Z" fill="url(#paint1_linear_1_202)"/>
<path d="M142.734 23.6919C134.58 23.6919 127.948 30.3251 127.948 38.4774C127.948 46.6311 134.58 53.2643 142.734 53.2643C150.888 53.2643 157.521 46.6311 157.521 38.4774C157.521 30.3237 150.888 23.6919 142.734 23.6919ZM142.734 42.5347C140.497 42.5347 138.677 40.7141 138.677 38.4774C138.677 36.2393 140.497 34.4201 142.734 34.4201C144.972 34.4201 146.793 36.2393 146.793 38.4774C146.793 40.7141 144.972 42.5347 142.734 42.5347Z" fill="url(#paint2_linear_1_202)"/>
</g>
<defs>
<linearGradient id="paint0_linear_1_202" x1="0" y1="91.4939" x2="183" y2="91.4939" gradientUnits="userSpaceOnUse">
<stop stop-color="#9B4894"/>
<stop offset="0.51" stop-color="#E94D94"/>
<stop offset="1" stop-color="#F08B75"/>
</linearGradient>
<linearGradient id="paint1_linear_1_202" x1="41.4622" y1="91.4967" x2="141.537" y2="91.4967" gradientUnits="userSpaceOnUse">
<stop stop-color="#9B4894"/>
<stop offset="0.51" stop-color="#E94D94"/>
<stop offset="1" stop-color="#F08B75"/>
</linearGradient>
<linearGradient id="paint2_linear_1_202" x1="127.948" y1="38.4771" x2="157.521" y2="38.4771" gradientUnits="userSpaceOnUse">
<stop stop-color="#9B4894"/>
<stop offset="0.51" stop-color="#E94D94"/>
<stop offset="1" stop-color="#F08B75"/>
</linearGradient>
<clipPath id="clip0_1_202">
<rect width="183" height="183" fill="white"/>
</clipPath>
</defs>
</svg>
