<svg width="15" height="15" viewBox="0 0 15 15" fill="none" xmlns="http://www.w3.org/2000/svg">
<path d="M14.4803 2.56234C14.3011 2.38313 14.086 2.25768 13.853 2.16807C13.853 2.16807 13.853 2.16807 13.8351 2.16807C13.7814 2.15015 13.7276 2.13223 13.6738 2.11431C13.6559 2.11431 13.6559 2.11431 13.638 2.11431C13.5842 2.09639 13.5305 2.09639 13.4767 2.07847C13.4588 2.07847 13.4409 2.07847 13.4409 2.07847C13.3692 2.07847 13.3154 2.06055 13.2437 2.06055H1.77419C1.70251 2.06055 1.64875 2.06055 1.57706 2.07847C1.55914 2.07847 1.54122 2.07847 1.54122 2.07847C1.48746 2.07847 1.43369 2.09639 1.37993 2.11431C1.36201 2.11431 1.36201 2.11431 1.34409 2.11431C1.29032 2.13223 1.23656 2.15015 1.1828 2.16807C1.1828 2.16807 1.1828 2.16807 1.16487 2.16807C0.9319 2.25768 0.716846 2.40105 0.537634 2.56234C0.519713 2.56234 0.519713 2.58026 0.501792 2.59818C0.483871 2.6161 0.46595 2.63402 0.448029 2.65194C0.430108 2.68779 0.394265 2.70571 0.376344 2.74155C0.358423 2.75947 0.358423 2.75947 0.340502 2.77739C0.340502 2.77739 0.340502 2.79531 0.322581 2.79531C0.125448 3.08205 0 3.42255 0 3.7989V11.1824C0 11.6484 0.179211 12.0785 0.483871 12.3831C0.483871 12.4011 0.501792 12.4011 0.501792 12.419C0.824373 12.7416 1.25448 12.9387 1.73835 12.9387H13.2437C13.7276 12.9387 14.1577 12.7416 14.4803 12.419C14.8029 12.0964 15 11.6663 15 11.1824V3.7989C15 3.31503 14.8029 2.88492 14.4803 2.56234ZM1.59498 2.97453C1.64875 2.9566 1.70251 2.9566 1.75627 2.9566H13.2437C13.2975 2.9566 13.3513 2.9566 13.405 2.97453C13.4588 2.99245 13.5125 3.01037 13.5663 3.02829L10.8602 5.25051L7.83154 7.70571L7.81362 7.72363C7.72401 7.79532 7.61649 7.83116 7.50896 7.83116C7.40143 7.83116 7.29391 7.79532 7.2043 7.72363L4.15771 5.25051L1.43369 3.02829C1.48746 3.01037 1.54122 2.99245 1.59498 2.97453ZM14.086 11.1824C14.086 11.4154 13.9964 11.6125 13.8351 11.7738C13.6918 11.9172 13.4767 12.0247 13.2437 12.0247H1.77419C1.54122 12.0247 1.34409 11.9351 1.1828 11.7738L1.16487 11.7559C1.02151 11.6125 0.9319 11.4154 0.9319 11.1824V3.81682L3.58423 5.96736L5.2509 7.32937L2.63441 9.82041C2.4552 9.99962 2.43728 10.2864 2.61649 10.4656C2.7957 10.6448 3.08244 10.6627 3.26165 10.4835L5.96774 7.90284L6.63083 8.44048C6.89964 8.65553 7.2043 8.76306 7.50896 8.74514C7.83154 8.74514 8.1362 8.63761 8.3871 8.42256L8.40502 8.40464L9.05018 7.88492L11.7742 10.4835C11.9534 10.6627 12.2401 10.6448 12.4194 10.4656C12.5986 10.2864 12.5806 9.99962 12.4014 9.82041L9.76703 7.31144L11.4337 5.96736L14.086 3.81682V11.1824Z" fill="#CA3192"/>
</svg>
