<svg width="15" height="15" viewBox="0 0 15 15" fill="none" xmlns="http://www.w3.org/2000/svg">
<path d="M14.4803 2.56283C14.3011 2.38362 14.086 2.25817 13.853 2.16856C13.853 2.16856 13.853 2.16856 13.8351 2.16856C13.7814 2.15064 13.7276 2.13272 13.6738 2.1148C13.6559 2.1148 13.6559 2.1148 13.638 2.1148C13.5842 2.09688 13.5305 2.09688 13.4767 2.07896C13.4588 2.07896 13.4409 2.07896 13.4409 2.07896C13.3692 2.07896 13.3154 2.06104 13.2437 2.06104H1.77419C1.70251 2.06104 1.64875 2.06104 1.57706 2.07896C1.55914 2.07896 1.54122 2.07896 1.54122 2.07896C1.48746 2.07896 1.43369 2.09688 1.37993 2.1148C1.36201 2.1148 1.36201 2.1148 1.34409 2.1148C1.29032 2.13272 1.23656 2.15064 1.1828 2.16856C1.1828 2.16856 1.1828 2.16856 1.16487 2.16856C0.9319 2.25817 0.716846 2.40154 0.537634 2.56283C0.519713 2.56283 0.519713 2.58075 0.501792 2.59867C0.483871 2.61659 0.46595 2.63451 0.448029 2.65243C0.430108 2.68828 0.394265 2.7062 0.376344 2.74204C0.358423 2.75996 0.358423 2.75996 0.340502 2.77788C0.340502 2.77788 0.340502 2.7958 0.322581 2.7958C0.125448 3.08254 0 3.42304 0 3.79939V11.1829C0 11.6489 0.179211 12.079 0.483871 12.3836C0.483871 12.4015 0.501792 12.4015 0.501792 12.4195C0.824373 12.742 1.25448 12.9392 1.73835 12.9392H13.2437C13.7276 12.9392 14.1577 12.742 14.4803 12.4195C14.8029 12.0969 15 11.6668 15 11.1829V3.79939C15 3.31552 14.8029 2.88541 14.4803 2.56283ZM1.59498 2.97501C1.64875 2.95709 1.70251 2.95709 1.75627 2.95709H13.2437C13.2975 2.95709 13.3513 2.95709 13.405 2.97501C13.4588 2.99294 13.5125 3.01086 13.5663 3.02878L10.8602 5.251L7.83154 7.7062L7.81362 7.72412C7.72401 7.7958 7.61649 7.83165 7.50896 7.83165C7.40143 7.83165 7.29391 7.7958 7.2043 7.72412L4.15771 5.251L1.43369 3.02878C1.48746 3.01086 1.54122 2.99294 1.59498 2.97501ZM14.086 11.1829C14.086 11.4159 13.9964 11.613 13.8351 11.7743C13.6918 11.9177 13.4767 12.0252 13.2437 12.0252H1.77419C1.54122 12.0252 1.34409 11.9356 1.1828 11.7743L1.16487 11.7564C1.02151 11.613 0.9319 11.4159 0.9319 11.1829V3.81731L3.58423 5.96785L5.2509 7.32985L2.63441 9.82089C2.4552 10.0001 2.43728 10.2868 2.61649 10.4661C2.7957 10.6453 3.08244 10.6632 3.26165 10.484L5.96774 7.90333L6.63083 8.44097C6.89964 8.65602 7.2043 8.76355 7.50896 8.74563C7.83154 8.74563 8.1362 8.6381 8.3871 8.42304L8.40502 8.40512L9.05018 7.88541L11.7742 10.484C11.9534 10.6632 12.2401 10.6453 12.4194 10.4661C12.5986 10.2868 12.5806 10.0001 12.4014 9.82089L9.76703 7.31193L11.4337 5.96785L14.086 3.81731V11.1829Z" fill="white"/>
</svg>
