<svg width="92" height="91" viewBox="0 0 92 91" fill="none" xmlns="http://www.w3.org/2000/svg">
<g clip-path="url(#clip0_1_1789)">
<path fill-rule="evenodd" clip-rule="evenodd" d="M57.2161 4.94129C101.399 22.4562 108.017 54.6495 50.5302 86.6053C25.3043 100.628 0 68.5286 0 44.3919C0 20.2552 13.0334 -12.5736 57.2161 4.94129Z" fill="url(#paint0_linear_1_1789)"/>
<path fill-rule="evenodd" clip-rule="evenodd" d="M28.5471 14.7202C34.8839 14.7202 40.4379 18.4094 43.5427 23.9456C46.6476 18.4094 52.2016 14.7202 58.5384 14.7202C68.2686 14.7202 76.1578 23.4183 76.1578 34.1486C76.1578 38.3676 74.9379 42.2718 72.8664 45.4574C72.8664 45.4574 68.543 53.533 60.1894 61.073C51.8583 68.5928 43.5867 73.7679 43.5427 73.7964C43.4988 73.7691 35.2272 68.5928 26.8961 61.073C18.5437 53.533 14.219 45.4574 14.219 45.4574C12.1476 42.2718 10.9277 38.3676 10.9277 34.1486C10.9277 23.4183 18.8157 14.7202 28.5471 14.7202V14.7202Z" stroke="white" stroke-width="3.00055" stroke-miterlimit="22.9256" stroke-linecap="round" stroke-linejoin="round"/>
<path fill-rule="evenodd" clip-rule="evenodd" d="M36.5944 30.5723C39.5306 30.5723 42.1045 32.2815 43.5429 34.8471C44.9813 32.2815 47.5552 30.5723 50.4913 30.5723C55.0001 30.5723 58.6561 34.6024 58.6561 39.5756C58.6561 41.5306 58.0907 43.3396 57.131 44.816C57.131 44.816 55.1272 48.5587 51.2563 52.0519C47.396 55.5368 43.5631 57.9349 43.5429 57.948C43.5227 57.9349 39.6898 55.5368 35.8295 52.0519C31.9586 48.5575 29.9548 44.816 29.9548 44.816C28.9951 43.3396 28.4297 41.5306 28.4297 39.5756C28.4297 34.6036 32.0845 30.5723 36.5944 30.5723V30.5723Z" stroke="white" stroke-width="3.00055" stroke-miterlimit="22.9256" stroke-linecap="round" stroke-linejoin="round"/>
</g>
<defs>
<linearGradient id="paint0_linear_1_1789" x1="0.263539" y1="56.2689" x2="91.9993" y2="56.2689" gradientUnits="userSpaceOnUse">
<stop stop-color="#F880B9"/>
<stop offset="1" stop-color="#FF98A6"/>
</linearGradient>
<clipPath id="clip0_1_1789">
<rect width="92" height="90.0249" fill="white"/>
</clipPath>
</defs>
</svg>
