<svg width="92" height="91" viewBox="0 0 92 91" fill="none" xmlns="http://www.w3.org/2000/svg">
<g clip-path="url(#clip0_1_1836)">
<path fill-rule="evenodd" clip-rule="evenodd" d="M57.2166 4.94148C101.4 22.4563 108.017 54.6498 50.5309 86.6067C25.3036 100.629 0 68.5307 0 44.3932C0 20.2557 13.0335 -12.5714 57.2166 4.94148Z" fill="url(#paint0_linear_1_1836)"/>
<path fill-rule="evenodd" clip-rule="evenodd" d="M75.2201 64.7591C69.8762 74.0442 56.4648 73.6243 51.5331 64.3488C49.9241 61.3161 46.2215 59.8427 42.8968 59.8427C38.9194 59.8427 35.965 61.4287 34.0068 64.803C28.8002 73.7789 15.7438 73.7427 10.5774 64.7648C5.07882 55.2602 12.358 44.3528 22.9372 44.4616C25.8878 44.4941 29.0865 42.5454 30.9989 39.2341C32.7357 36.2243 32.9666 32.8576 31.8654 30.3612C31.4951 29.5234 30.9493 28.7638 30.5657 27.9164C26.5157 19.0168 32.9953 8.90333 42.7327 8.78309C52.6152 8.6743 59.3066 18.8851 55.2376 27.8877C54.9226 28.5901 54.5562 29.1607 54.2012 29.8039C52.7984 32.3385 52.9225 35.9915 54.7929 39.2303C59.1043 46.6984 64.1276 42.7993 70.151 46.2003C76.6764 49.8876 78.9743 58.2643 75.2182 64.7534L75.2201 64.7591Z" stroke="white" stroke-width="2.99916" stroke-miterlimit="22.9256"/>
<path fill-rule="evenodd" clip-rule="evenodd" d="M22.3054 49.4736C27.0119 49.4736 30.8271 53.2888 30.8271 57.9953C30.8271 62.7018 27.0119 66.517 22.3054 66.517C17.5989 66.517 13.7837 62.7018 13.7837 57.9953C13.7837 53.2888 17.5989 49.4736 22.3054 49.4736Z" stroke="white" stroke-width="2.99916" stroke-miterlimit="22.9256"/>
<path fill-rule="evenodd" clip-rule="evenodd" d="M50.2774 18.0663C52.6306 22.1411 51.2336 27.3533 47.1588 29.7066C43.084 32.0598 37.8718 30.6628 35.5185 26.588C33.1653 22.5132 34.5623 17.301 38.6371 14.9477C42.7119 12.5945 47.9241 13.9915 50.2774 18.0663Z" stroke="white" stroke-width="2.99916" stroke-miterlimit="22.9256"/>
<path fill-rule="evenodd" clip-rule="evenodd" d="M63.49 49.4736C68.1965 49.4736 72.0117 53.2888 72.0117 57.9953C72.0117 62.7018 68.1965 66.517 63.49 66.517C58.7835 66.517 54.9683 62.7018 54.9683 57.9953C54.9683 53.2888 58.7835 49.4736 63.49 49.4736Z" stroke="white" stroke-width="2.99916" stroke-miterlimit="22.9256"/>
<path fill-rule="evenodd" clip-rule="evenodd" d="M70.8706 53.7334C73.2239 57.8081 71.8268 63.0204 67.7521 65.3736C63.6773 67.7269 58.465 66.3298 56.1118 62.2551C53.7585 58.1803 55.1556 52.968 59.2304 50.6148C63.3051 48.2615 68.5174 49.6586 70.8706 53.7334Z" stroke="white" stroke-width="2.99916" stroke-miterlimit="22.9256"/>
<path fill-rule="evenodd" clip-rule="evenodd" d="M51.1648 41.6484C53.812 46.2328 52.2413 52.0958 47.6569 54.7449C43.0726 57.3921 37.2095 55.8213 34.5604 51.237C31.9132 46.6526 33.484 40.7896 38.0683 38.1405C42.6527 35.4933 48.5158 37.0641 51.1648 41.6484V41.6484Z" stroke="white" stroke-width="2.99916" stroke-miterlimit="22.9256"/>
</g>
<defs>
<linearGradient id="paint0_linear_1_1836" x1="0.26354" y1="56.27" x2="91.9995" y2="56.27" gradientUnits="userSpaceOnUse">
<stop stop-color="#F880B9"/>
<stop offset="1" stop-color="#FF98A6"/>
</linearGradient>
<clipPath id="clip0_1_1836">
<rect width="92" height="90.0249" fill="white"/>
</clipPath>
</defs>
</svg>
