<svg width="92" height="91" viewBox="0 0 92 91" fill="none" xmlns="http://www.w3.org/2000/svg">
<g clip-path="url(#clip0_1_1758)">
<path fill-rule="evenodd" clip-rule="evenodd" d="M57.2166 4.94121C101.4 22.456 108.018 54.6502 50.531 86.6063C25.3044 100.63 0 68.5295 0 44.3925C0 20.2554 13.0328 -12.5735 57.2166 4.94121Z" fill="url(#paint0_linear_1_1758)"/>
<path fill-rule="evenodd" clip-rule="evenodd" d="M31.9462 9.96094H49.9509C58.5426 9.96094 65.5721 16.9905 65.5721 25.5822V32.0077C62.2719 32.6694 59.7857 35.5836 59.7857 39.0787V45.9886V46.2116V53.6886H22.1108V46.2116V45.9886V39.0787C22.1108 35.5836 19.6245 32.6694 16.3243 32.0077V25.5822C16.3243 16.9905 23.3539 9.96094 31.9456 9.96094H31.9462Z" stroke="white" stroke-width="2.99989" stroke-miterlimit="22.9256" stroke-linecap="round" stroke-linejoin="round"/>
<path fill-rule="evenodd" clip-rule="evenodd" d="M14.8989 31.8662C18.882 31.8662 22.1108 35.095 22.1108 39.0788V45.9887V46.2117V53.6887H29.0132H39.368H52.8833H59.7857V46.2117V45.9887V39.0788C59.7857 35.0956 63.0144 31.8662 66.9976 31.8662C70.9807 31.8662 74.2101 35.276 74.2101 39.0788C74.2101 42.8808 71.5409 45.6973 68.0628 46.2117H68.069V63.2077C68.069 64.4965 67.0145 65.5511 65.7256 65.5511H64.3315H52.8826H39.3674H29.0125H17.5637H16.1696C14.8807 65.5511 13.8262 64.4965 13.8262 63.2077V46.2117H13.8324C10.3543 45.6967 7.68506 42.6997 7.68506 39.0788C7.68506 35.0956 10.9144 31.8662 14.8976 31.8662H14.8989Z" stroke="white" stroke-width="2.99989" stroke-miterlimit="22.9256" stroke-linecap="round" stroke-linejoin="round"/>
<path fill-rule="evenodd" clip-rule="evenodd" d="M24.4542 43.646H57.4423C58.7312 43.646 59.7857 44.7005 59.7857 45.9888V53.6894H22.1108V45.9888C22.1108 44.6999 23.1654 43.646 24.4536 43.646H24.4542Z" stroke="white" stroke-width="2.99989" stroke-miterlimit="22.9256" stroke-linecap="round" stroke-linejoin="round"/>
<path fill-rule="evenodd" clip-rule="evenodd" d="M17.2754 65.5508H23.2893L21.0367 73.8586H17.2754V65.5508Z" stroke="white" stroke-width="2.99989" stroke-miterlimit="22.9256" stroke-linecap="round" stroke-linejoin="round"/>
<path fill-rule="evenodd" clip-rule="evenodd" d="M64.6217 65.5508H58.6084L60.861 73.8586H64.6217V65.5508Z" stroke="white" stroke-width="2.99989" stroke-miterlimit="22.9256" stroke-linecap="round" stroke-linejoin="round"/>
</g>
<defs>
<linearGradient id="paint0_linear_1_1758" x1="0.263541" y1="56.2697" x2="92" y2="56.2697" gradientUnits="userSpaceOnUse">
<stop stop-color="#F880B9"/>
<stop offset="1" stop-color="#FF98A6"/>
</linearGradient>
<clipPath id="clip0_1_1758">
<rect width="92" height="90.0249" fill="white"/>
</clipPath>
</defs>
</svg>
